<?xml version="1.0" encoding="utf-8"?>
<!-- Generator: Adobe Illustrator 16.0.0, SVG Export Plug-In . SVG Version: 6.00 Build 0)  -->
<!DOCTYPE svg PUBLIC "-//W3C//DTD SVG 1.1//EN" "http://www.w3.org/Graphics/SVG/1.1/DTD/svg11.dtd">
<svg version="1.1" id="Layer_1" xmlns="http://www.w3.org/2000/svg" xmlns:xlink="http://www.w3.org/1999/xlink" x="0px" y="0px"
	 width="300px" height="300px" viewBox="0 0 300 300" enable-background="new 0 0 300 300" xml:space="preserve">
<rect fill="#FFFFFF" width="300" height="300"/>
<g>
	<circle fill="#C6EDF1" cx="150.113" cy="149.68" r="130.25"/>
</g>
<g>
	<path fill="#FFFFFF" d="M167.654,141.692c-0.455,0-0.869-0.31-0.98-0.774c-0.393-1.636-0.813-3.275-1.249-4.874
		c-0.146-0.539,0.171-1.094,0.71-1.24c0.537-0.147,1.094,0.17,1.24,0.709c0.439,1.617,0.865,3.276,1.264,4.932
		c0.131,0.543-0.203,1.088-0.746,1.219C167.812,141.684,167.734,141.692,167.654,141.692z M79.107,136.666h-0.002
		c-1.758,0-3.49,0.025-5.146-0.146c-0.556-0.058-0.959-0.496-0.901-1.051s0.55-0.935,1.108-0.873
		c1.59,0.166,3.254,0.265,4.942,0.267c0.558,0.001,1.011,0.345,1.009,0.904C80.116,136.323,79.663,136.666,79.107,136.666z
		 M84.152,136.681c-0.52,0-0.96-0.397-1.006-0.924c-0.049-0.556,0.363-1.045,0.92-1.094c1.623-0.141,3.281-0.352,4.934-0.627
		c0.55-0.09,1.07,0.28,1.161,0.83c0.093,0.55-0.28,1.071-0.829,1.164c-1.703,0.284-3.416,0.502-5.092,0.647
		C84.21,136.68,84.182,136.681,84.152,136.681z M69.08,135.829c-0.074,0-0.148-0.007-0.225-0.024
		c-1.74-0.396-3.413-0.904-4.972-1.509c-0.521-0.203-0.777-0.788-0.575-1.308c0.202-0.52,0.788-0.779,1.309-0.576
		c1.465,0.57,3.043,1.048,4.686,1.422c0.545,0.124,0.885,0.666,0.762,1.209C69.958,135.512,69.541,135.829,69.08,135.829z
		 M94.117,135.025c-0.453,0-0.867-0.31-0.979-0.771c-0.132-0.542,0.199-1.089,0.741-1.221c1.603-0.392,3.215-0.848,4.795-1.357
		c0.53-0.17,1.099,0.121,1.271,0.653c0.171,0.531-0.121,1.1-0.651,1.271c-1.625,0.523-3.285,0.992-4.934,1.395
		C94.278,135.015,94.197,135.025,94.117,135.025z M59.726,132.133c-0.18,0-0.363-0.048-0.527-0.149
		c-1.526-0.938-2.927-2.015-4.167-3.2c-0.402-0.386-0.418-1.025-0.031-1.429c0.387-0.403,1.025-0.417,1.429-0.031
		c1.136,1.086,2.423,2.075,3.827,2.938c0.475,0.292,0.623,0.915,0.331,1.39C60.396,131.962,60.064,132.133,59.726,132.133z
		 M164.996,131.932c-0.434,0-0.834-0.28-0.967-0.715c-0.496-1.616-1.018-3.224-1.549-4.776c-0.182-0.528,0.1-1.103,0.627-1.283
		c0.527-0.183,1.104,0.1,1.283,0.627c0.541,1.574,1.068,3.202,1.57,4.84c0.164,0.533-0.137,1.098-0.67,1.262
		C165.193,131.917,165.094,131.932,164.996,131.932z M103.732,131.928c-0.4,0-0.778-0.239-0.938-0.633
		c-0.209-0.517,0.04-1.106,0.559-1.315c1.547-0.625,3.072-1.31,4.537-2.035c0.5-0.249,1.105-0.043,1.354,0.457
		c0.246,0.5,0.043,1.106-0.458,1.354c-1.509,0.748-3.082,1.454-4.676,2.098C103.986,131.904,103.857,131.928,103.732,131.928z
		 M112.771,127.436c-0.344,0-0.676-0.174-0.866-0.489c-0.288-0.477-0.136-1.099,0.342-1.387c1.446-0.873,2.831-1.799,4.119-2.755
		c0.448-0.333,1.081-0.238,1.413,0.209c0.333,0.448,0.24,1.081-0.209,1.414c-1.339,0.994-2.779,1.956-4.277,2.862
		C113.13,127.388,112.948,127.436,112.771,127.436z M52.516,125.189c-0.33,0-0.653-0.162-0.848-0.458
		c-0.941-1.448-1.734-3.029-2.357-4.701c-0.195-0.523,0.071-1.104,0.594-1.3c0.523-0.196,1.105,0.071,1.301,0.595
		c0.57,1.532,1.295,2.98,2.157,4.303c0.304,0.467,0.172,1.094-0.296,1.397C52.896,125.137,52.706,125.189,52.516,125.189z
		 M161.714,122.374c-0.407,0-0.79-0.248-0.944-0.65c-0.6-1.569-1.231-3.132-1.877-4.647c-0.22-0.513,0.02-1.106,0.533-1.326
		s1.105,0.021,1.326,0.534c0.654,1.538,1.297,3.125,1.904,4.717c0.201,0.521-0.061,1.105-0.582,1.305
		C161.957,122.352,161.834,122.374,161.714,122.374z M120.855,121.4c-0.271,0-0.541-0.108-0.739-0.321
		c-0.381-0.408-0.358-1.047,0.048-1.429c1.24-1.157,2.369-2.361,3.357-3.581c0.351-0.433,0.986-0.501,1.42-0.15
		s0.501,0.987,0.15,1.421c-1.047,1.292-2.239,2.566-3.549,3.787C121.35,121.311,121.103,121.4,120.855,121.4z M48.967,115.817
		c-0.484,0-0.928-0.35-1.012-0.842c-0.271-1.605-0.475-3.308-0.475-5.062v-0.129c0-0.558,0.452-1.011,1.011-1.011
		c0.558,0,1.011,0.453,1.011,1.011v0.111c0,1.635,0.191,3.238,0.446,4.744c0.093,0.551-0.27,1.072-0.819,1.165
		C49.071,115.813,49.022,115.817,48.967,115.817z M127.133,113.541c-0.164,0-0.332-0.041-0.486-0.125
		c-0.488-0.269-0.668-0.884-0.396-1.372c0.064-0.116,0.126-0.231,0.188-0.348c0.697-1.304,1.318-2.684,1.852-4.108
		c0.195-0.522,0.779-0.789,1.3-0.592c0.523,0.195,0.788,0.777,0.593,1.299c-0.564,1.508-1.224,2.971-1.961,4.348
		c-0.064,0.122-0.132,0.249-0.201,0.375C127.836,113.352,127.489,113.541,127.133,113.541z M157.752,113.088
		c-0.378,0-0.74-0.213-0.913-0.578c-0.724-1.525-1.479-3.032-2.245-4.477c-0.261-0.494-0.072-1.105,0.421-1.366
		s1.104-0.072,1.365,0.42c0.778,1.472,1.547,3.004,2.284,4.557c0.24,0.503,0.024,1.106-0.479,1.346
		C158.045,113.057,157.898,113.088,157.752,113.088z M48.768,105.754c-0.033,0-0.066-0.002-0.1-0.005
		c-0.555-0.054-0.962-0.548-0.908-1.104c0.17-1.745,0.432-3.459,0.778-5.096c0.114-0.546,0.651-0.897,1.197-0.78
		c0.546,0.115,0.895,0.651,0.779,1.197c-0.33,1.564-0.58,3.204-0.743,4.876C49.721,105.363,49.281,105.754,48.768,105.754z
		 M153.021,104.162c-0.347,0-0.683-0.177-0.872-0.496c-0.854-1.447-1.746-2.873-2.652-4.238c-0.308-0.465-0.182-1.092,0.285-1.401
		c0.465-0.309,1.09-0.18,1.4,0.284c0.923,1.395,1.834,2.85,2.708,4.327c0.284,0.48,0.124,1.1-0.356,1.384
		C153.371,104.117,153.195,104.162,153.021,104.162z M130.689,104.118c-0.076,0-0.152-0.008-0.229-0.026
		c-0.544-0.126-0.883-0.669-0.756-1.212c0.363-1.562,0.645-3.199,0.837-4.865c0.062-0.554,0.567-0.955,1.119-0.887
		c0.555,0.063,0.951,0.564,0.887,1.119c-0.2,1.742-0.494,3.454-0.875,5.09C131.564,103.802,131.148,104.118,130.689,104.118z
		 M50.873,95.908c-0.109,0-0.223-0.018-0.332-0.057c-0.527-0.183-0.805-0.759-0.621-1.287c0.574-1.65,1.26-3.253,2.038-4.766
		c0.256-0.496,0.864-0.691,1.36-0.437c0.496,0.256,0.692,0.865,0.438,1.361c-0.736,1.428-1.385,2.944-1.929,4.506
		C51.684,95.647,51.291,95.908,50.873,95.908z M147.434,95.748c-0.309,0-0.611-0.141-0.811-0.406
		c-1.006-1.347-2.051-2.66-3.104-3.905c-0.361-0.426-0.309-1.063,0.118-1.424c0.425-0.361,1.062-0.308,1.423,0.118
		c1.081,1.275,2.151,2.622,3.182,4.002c0.335,0.447,0.242,1.08-0.205,1.414C147.855,95.683,147.645,95.748,147.434,95.748z
		 M131.871,94.229c-0.006,0-0.012,0-0.018,0c-0.559,0-1.003-0.534-0.994-1.092c0.005-0.295,0.008-0.625,0.008-0.922
		c-0.001-1.332-0.049-2.718-0.146-4.089c-0.038-0.556,0.38-1.048,0.937-1.087c0.557-0.032,1.039,0.377,1.078,0.934
		c0.101,1.418,0.151,2.834,0.151,4.211c0,0.309-0.003,0.68-0.007,0.988C132.871,93.724,132.42,94.229,131.871,94.229z
		 M140.902,88.05c-0.264,0-0.527-0.104-0.726-0.308c-1.165-1.202-2.37-2.361-3.581-3.446c-0.416-0.372-0.451-1.01-0.08-1.426
		c0.371-0.416,1.01-0.452,1.426-0.079c1.248,1.116,2.488,2.309,3.688,3.545c0.389,0.4,0.378,1.041-0.023,1.429
		C141.41,87.955,141.156,88.05,140.902,88.05z M55.485,86.971c-0.205,0-0.41-0.062-0.589-0.19c-0.453-0.326-0.556-0.957-0.23-1.41
		c1.004-1.397,2.125-2.736,3.333-3.98c0.388-0.4,1.028-0.41,1.43-0.021c0.4,0.388,0.409,1.028,0.021,1.429
		c-1.141,1.173-2.196,2.435-3.143,3.751C56.109,86.825,55.799,86.971,55.485,86.971z M131.178,84.028
		c-0.493,0-0.924-0.361-0.998-0.863c-0.216-1.461-0.485-2.956-0.805-4.45c-0.223-0.146-0.445-0.292-0.67-0.436
		c-0.471-0.301-0.607-0.926-0.305-1.396c0.3-0.47,0.925-0.606,1.396-0.305c0.259,0.166,0.519,0.336,0.777,0.507
		c0.181,0.058,0.342,0.166,0.464,0.311c1.002,0.677,1.992,1.389,2.959,2.127c0.443,0.338,0.528,0.973,0.189,1.417
		c-0.34,0.444-0.973,0.529-1.416,0.19c-0.332-0.254-0.667-0.505-1.005-0.75c0.155,0.836,0.293,1.668,0.414,2.49
		c0.081,0.552-0.3,1.066-0.852,1.147C131.276,84.025,131.227,84.028,131.178,84.028z M62.484,79.743c-0.3,0-0.598-0.134-0.799-0.39
		c-0.34-0.441-0.262-1.076,0.179-1.418c1.331-1.034,2.771-2.012,4.281-2.905c0.479-0.284,1.1-0.125,1.384,0.355
		c0.284,0.48,0.125,1.099-0.355,1.383c-1.436,0.852-2.806,1.781-4.07,2.763C62.92,79.674,62.701,79.743,62.484,79.743z
		 M124.887,75.897c-0.16,0-0.319-0.036-0.471-0.116c-1.461-0.768-2.969-1.478-4.484-2.111c-0.514-0.215-0.757-0.807-0.541-1.322
		c0.216-0.514,0.807-0.757,1.322-0.542c1.568,0.655,3.131,1.391,4.645,2.187c0.494,0.259,0.684,0.871,0.424,1.364
		C125.6,75.702,125.249,75.897,124.887,75.897z M71.145,74.59c-0.387,0-0.753-0.221-0.923-0.596
		c-0.229-0.509-0.001-1.108,0.507-1.336c1.523-0.685,3.135-1.316,4.793-1.877c0.527-0.181,1.103,0.105,1.281,0.634
		c0.178,0.529-0.105,1.102-0.633,1.281c-1.596,0.539-3.148,1.146-4.611,1.805C71.424,74.561,71.283,74.59,71.145,74.59z
		 M129.024,74.159c-0.439,0-0.844-0.289-0.972-0.732c-0.452-1.58-0.963-3.181-1.518-4.759c-0.186-0.525,0.091-1.102,0.617-1.288
		c0.525-0.185,1.104,0.092,1.289,0.618c0.567,1.616,1.09,3.254,1.555,4.872c0.153,0.536-0.156,1.096-0.693,1.25
		C129.209,74.146,129.115,74.159,129.024,74.159z M115.587,72.011c-0.102,0-0.203-0.016-0.306-0.048
		c-1.562-0.496-3.174-0.93-4.785-1.29c-0.543-0.122-0.887-0.662-0.766-1.207c0.123-0.543,0.664-0.882,1.207-0.766
		c1.668,0.373,3.336,0.823,4.955,1.336c0.531,0.169,0.826,0.736,0.658,1.269C116.414,71.736,116.016,72.011,115.587,72.011z
		 M80.694,71.341c-0.454,0-0.866-0.308-0.98-0.77c-0.134-0.541,0.198-1.089,0.739-1.223c1.62-0.398,3.309-0.747,5.021-1.036
		c0.548-0.095,1.071,0.277,1.165,0.828s-0.278,1.072-0.828,1.164c-1.663,0.282-3.303,0.62-4.873,1.007
		C80.855,71.331,80.773,71.341,80.694,71.341z M105.754,69.808c-0.046,0-0.09-0.003-0.137-0.009
		c-1.619-0.22-3.282-0.379-4.941-0.471c-0.558-0.031-0.983-0.508-0.953-1.065c0.031-0.557,0.516-0.979,1.065-0.952
		c1.713,0.095,3.431,0.26,5.102,0.487c0.553,0.075,0.939,0.584,0.864,1.137C106.686,69.44,106.252,69.808,105.754,69.808z
		 M90.648,69.642c-0.513,0-0.952-0.387-1.004-0.907c-0.059-0.555,0.346-1.051,0.9-1.107c1.66-0.171,3.377-0.296,5.099-0.371
		c0.015-0.001,0.029-0.001,0.045-0.001c0.538,0,0.983,0.423,1.007,0.966c0.024,0.558-0.406,1.029-0.965,1.054
		c-1.682,0.073-3.357,0.195-4.979,0.361C90.717,69.641,90.682,69.642,90.648,69.642z M125.678,64.626
		c-0.396,0-0.771-0.234-0.934-0.624c-0.635-1.525-1.323-3.063-2.047-4.567c-0.242-0.503-0.03-1.107,0.472-1.349
		c0.505-0.24,1.106-0.03,1.349,0.473c0.74,1.538,1.443,3.108,2.092,4.669c0.215,0.515-0.029,1.106-0.545,1.32
		C125.938,64.602,125.807,64.626,125.678,64.626z M121.296,55.51c-0.358,0-0.703-0.19-0.888-0.525
		c-0.799-1.457-1.646-2.909-2.52-4.318c-0.295-0.474-0.148-1.098,0.326-1.392c0.475-0.292,1.098-0.147,1.392,0.327
		c0.892,1.439,1.759,2.923,2.575,4.411c0.268,0.489,0.088,1.104-0.4,1.372C121.627,55.471,121.461,55.51,121.296,55.51z
		 M115.973,46.925c-0.319,0-0.633-0.151-0.83-0.432c-0.957-1.371-1.957-2.724-2.973-4.017c-0.344-0.439-0.268-1.074,0.171-1.418
		s1.075-0.268,1.419,0.17c1.039,1.324,2.062,2.706,3.041,4.108c0.319,0.458,0.207,1.088-0.25,1.407
		C116.374,46.866,116.172,46.925,115.973,46.925z M109.729,38.98c-0.279,0-0.557-0.115-0.756-0.34
		c-1.112-1.256-2.266-2.476-3.424-3.628c-0.396-0.394-0.398-1.034-0.006-1.43c0.396-0.394,1.034-0.397,1.43-0.004
		c1.19,1.182,2.371,2.435,3.512,3.722c0.37,0.417,0.332,1.056-0.086,1.427C110.205,38.896,109.967,38.98,109.729,38.98z
		 M102.557,31.867c-0.234,0-0.469-0.081-0.659-0.246c-1.272-1.099-2.578-2.146-3.884-3.11c-0.447-0.332-0.543-0.964-0.211-1.414
		c0.33-0.448,0.964-0.544,1.413-0.212c1.347,0.996,2.693,2.075,4.003,3.208c0.422,0.364,0.469,1.003,0.104,1.425
		C103.121,31.749,102.84,31.867,102.557,31.867z"/>
</g>
<g>
	<path fill="#FFFFFF" d="M216.273,260.822c-0.256,0-0.512-0.097-0.707-0.29c-1.185-1.161-2.346-2.458-3.451-3.853
		c-0.348-0.438-0.274-1.072,0.163-1.42c0.438-0.346,1.071-0.272,1.419,0.163c1.055,1.329,2.16,2.563,3.285,3.667
		c0.397,0.392,0.402,1.031,0.012,1.43C216.797,260.721,216.534,260.822,216.273,260.822z M209.977,252.949
		c-0.333,0-0.658-0.165-0.852-0.465c-0.893-1.391-1.764-2.884-2.588-4.438c-0.264-0.491-0.076-1.104,0.416-1.365
		c0.494-0.262,1.105-0.075,1.367,0.418c0.799,1.504,1.643,2.948,2.506,4.293c0.301,0.469,0.164,1.094-0.306,1.395
		C210.353,252.896,210.162,252.949,209.977,252.949z M205.217,244.041c-0.387,0-0.756-0.224-0.924-0.6
		c-0.676-1.514-1.329-3.105-1.941-4.732c-0.197-0.521,0.066-1.104,0.589-1.301c0.522-0.198,1.104,0.065,1.302,0.589
		c0.6,1.589,1.236,3.144,1.896,4.62c0.228,0.51-0.002,1.107-0.512,1.335C205.494,244.013,205.354,244.041,205.217,244.041z
		 M201.641,234.589c-0.43,0-0.826-0.274-0.963-0.704c-0.506-1.586-0.986-3.234-1.432-4.898c-0.146-0.539,0.174-1.094,0.713-1.238
		c0.541-0.145,1.094,0.176,1.238,0.715c0.436,1.635,0.91,3.253,1.405,4.809c0.171,0.531-0.124,1.1-0.655,1.27
		C201.846,234.572,201.742,234.589,201.641,234.589z M199.023,224.821c-0.465,0-0.882-0.321-0.986-0.792
		c-0.365-1.654-0.699-3.337-0.994-5.004c-0.098-0.549,0.27-1.072,0.819-1.17c0.548-0.096,1.073,0.27,1.171,0.819
		c0.291,1.638,0.619,3.293,0.977,4.919c0.121,0.545-0.223,1.083-0.768,1.203C199.168,224.814,199.095,224.821,199.023,224.821z
		 M197.26,214.863c-0.498,0-0.934-0.368-1-0.876c-0.229-1.696-0.418-3.402-0.568-5.07c-0.05-0.556,0.361-1.047,0.916-1.097
		c0.557-0.041,1.047,0.361,1.097,0.916c0.147,1.639,0.335,3.316,0.559,4.982c0.073,0.553-0.314,1.062-0.867,1.136
		C197.35,214.861,197.304,214.863,197.26,214.863z M196.365,204.79c-0.539,0-0.987-0.426-1.01-0.97
		c-0.053-1.281-0.078-2.543-0.078-3.752c0-0.559,0.451-1.011,1.01-1.011c0.558,0,1.01,0.452,1.01,1.011
		c0,1.182,0.027,2.416,0.078,3.67c0.023,0.557-0.41,1.027-0.969,1.051C196.393,204.789,196.379,204.79,196.365,204.79z
		 M269.442,197.533c-0.39,0-0.76-0.227-0.926-0.606c-0.659-1.508-1.372-3.032-2.119-4.532c-0.249-0.5-0.046-1.105,0.454-1.355
		c0.499-0.249,1.107-0.045,1.354,0.455c0.763,1.529,1.489,3.086,2.161,4.623c0.225,0.512-0.008,1.107-0.521,1.331
		C269.715,197.506,269.578,197.533,269.442,197.533z M264.941,188.484c-0.354,0-0.698-0.187-0.882-0.519
		c-0.804-1.439-1.658-2.894-2.538-4.318c-0.293-0.476-0.147-1.098,0.328-1.391c0.475-0.294,1.098-0.146,1.39,0.329
		c0.896,1.451,1.766,2.93,2.585,4.396c0.271,0.487,0.097,1.104-0.391,1.374C265.277,188.443,265.108,188.484,264.941,188.484z
		 M259.632,179.883c-0.323,0-0.641-0.154-0.836-0.442c-0.937-1.379-1.914-2.756-2.905-4.095c-0.332-0.447-0.237-1.08,0.211-1.412
		c0.447-0.333,1.08-0.238,1.412,0.211c1.01,1.359,2.002,2.759,2.953,4.161c0.314,0.462,0.193,1.09-0.268,1.403
		C260.025,179.827,259.827,179.883,259.632,179.883z M253.61,171.757c-0.295,0-0.587-0.128-0.786-0.376
		c-1.049-1.301-2.135-2.59-3.226-3.834c-0.368-0.419-0.325-1.058,0.093-1.426c0.422-0.369,1.059-0.326,1.427,0.094
		c1.108,1.264,2.211,2.575,3.278,3.898c0.35,0.434,0.281,1.069-0.152,1.42C254.058,171.684,253.834,171.757,253.61,171.757z
		 M246.955,164.168c-0.267,0-0.533-0.105-0.732-0.314c-1.154-1.211-2.344-2.407-3.533-3.554c-0.402-0.388-0.414-1.026-0.027-1.429
		c0.387-0.401,1.026-0.413,1.428-0.026c1.211,1.165,2.42,2.382,3.596,3.614c0.385,0.405,0.369,1.045-0.033,1.43
		C247.457,164.074,247.204,164.168,246.955,164.168z M239.672,157.156c-0.238,0-0.475-0.083-0.667-0.252
		c-1.265-1.112-2.554-2.196-3.833-3.221c-0.438-0.348-0.508-0.984-0.159-1.42c0.349-0.438,0.986-0.506,1.421-0.158
		c1.305,1.044,2.619,2.148,3.906,3.282c0.418,0.368,0.461,1.007,0.09,1.425C240.23,157.04,239.952,157.156,239.672,157.156z
		 M231.775,150.847c-0.205,0-0.41-0.062-0.59-0.19c-1.369-0.986-2.761-1.931-4.135-2.808c-0.47-0.3-0.609-0.925-0.308-1.395
		c0.3-0.471,0.927-0.608,1.396-0.308c1.404,0.896,2.827,1.862,4.228,2.871c0.452,0.326,0.556,0.957,0.23,1.409
		C232.398,150.701,232.09,150.847,231.775,150.847z M223.252,145.42c-0.166,0-0.332-0.041-0.488-0.127
		c-1.479-0.819-2.972-1.58-4.438-2.263c-0.505-0.236-0.724-0.837-0.489-1.343c0.236-0.505,0.838-0.723,1.342-0.489
		c1.511,0.704,3.047,1.487,4.566,2.329c0.487,0.271,0.664,0.885,0.393,1.374C223.952,145.232,223.607,145.42,223.252,145.42z
		 M214.092,141.175c-0.117,0-0.235-0.021-0.351-0.063c-1.583-0.587-3.172-1.093-4.72-1.505c-0.539-0.143-0.86-0.697-0.717-1.236
		c0.145-0.539,0.694-0.861,1.237-0.716c1.609,0.428,3.259,0.955,4.901,1.563c0.523,0.193,0.79,0.775,0.597,1.298
		C214.889,140.923,214.502,141.175,214.092,141.175z M204.343,138.609c-0.05,0-0.101-0.003-0.151-0.011
		c-1.659-0.248-3.305-0.387-4.89-0.414c-0.558-0.009-1.003-0.471-0.994-1.029c0.009-0.552,0.46-0.996,1.011-0.996
		c0.006,0,0.01,0,0.018,0c1.674,0,3.408,0.177,5.154,0.438c0.553,0.083,0.934,0.597,0.85,1.148
		C205.266,138.249,204.834,138.609,204.343,138.609z"/>
</g>
<g>
	<g>
		<g>
			<path fill="#EDEFF1" d="M226.827,203.236c0,6.844-4.354,14.262-11.221,14.262H86.846c-6.867,0-13.6-7.418-13.6-14.262V100.292
				c0-6.845,6.732-11.114,13.6-11.114h128.761c6.866,0,11.221,4.27,11.221,11.114V203.236z"/>
			<path fill="#3D454D" d="M215.606,218.509H86.846c-7.238,0-14.611-7.708-14.611-15.272V100.292
				c0-7.589,7.429-12.125,14.611-12.125h128.761c7.429,0,12.231,4.759,12.231,12.125v102.945c0,3.684-1.176,7.434-3.226,10.286
				C222.303,216.738,219.104,218.509,215.606,218.509z M86.846,90.187c-6.188,0-12.59,3.78-12.59,10.104v102.945
				c0,6.439,6.473,13.252,12.59,13.252h128.761c6.107,0,10.21-6.854,10.21-13.252V100.292c0-6.232-3.912-10.104-10.21-10.104H86.846
				z"/>
		</g>
		<g>
			<path fill="#C9CFD4" d="M216.1,88.167H87.27c-6.872,0-14.023,4.454-14.023,11.298v11.941h153.581V99.465
				C226.827,92.621,222.97,88.167,216.1,88.167z"/>
			<path fill="#3D454D" d="M226.827,112.416H73.246c-0.559,0-1.012-0.452-1.012-1.01V99.465c0-7.602,7.805-12.309,15.035-12.309
				H216.1c7.24,0,11.738,4.716,11.738,12.309v11.941C227.838,111.964,227.385,112.416,226.827,112.416z M74.256,110.395h151.561
				v-10.93c0-6.442-3.633-10.288-9.717-10.288H87.27c-8.037,0-13.014,5.339-13.014,10.288V110.395z"/>
		</g>
		<g>
			<circle fill="#EB6B6A" cx="216.809" cy="99.025" r="3.563"/>
			<path fill="#3D454D" d="M216.811,103.599c-2.522,0-4.574-2.051-4.574-4.573s2.052-4.574,4.574-4.574
				c2.521,0,4.572,2.052,4.572,4.574S219.331,103.599,216.811,103.599z M216.811,96.472c-1.409,0-2.555,1.145-2.555,2.553
				c0,1.407,1.146,2.553,2.555,2.553c1.408,0,2.552-1.146,2.552-2.553C219.362,97.617,218.219,96.472,216.811,96.472z"/>
		</g>
		<g>
			<circle fill="#EAAF33" cx="206.404" cy="99.025" r="3.563"/>
			<path fill="#3D454D" d="M206.404,103.599c-2.521,0-4.574-2.051-4.574-4.573s2.053-4.574,4.574-4.574s4.572,2.052,4.572,4.574
				S208.926,103.599,206.404,103.599z M206.404,96.472c-1.408,0-2.553,1.145-2.553,2.553c0,1.407,1.145,2.553,2.553,2.553
				c1.406,0,2.553-1.146,2.553-2.553C208.957,97.617,207.811,96.472,206.404,96.472z"/>
		</g>
		<g>
			<circle fill="#67CEA4" cx="195.999" cy="99.025" r="3.562"/>
			<path fill="#3D454D" d="M195.998,103.599c-2.521,0-4.572-2.051-4.572-4.573s2.051-4.574,4.572-4.574s4.574,2.052,4.574,4.574
				S198.52,103.599,195.998,103.599z M195.998,96.472c-1.408,0-2.552,1.145-2.552,2.553c0,1.407,1.144,2.553,2.552,2.553
				c1.407,0,2.553-1.146,2.553-2.553C198.551,97.617,197.405,96.472,195.998,96.472z"/>
		</g>
	</g>
	<g>
		<rect x="73.246" y="111.406" fill="#67CEA4" width="153.581" height="42.941"/>
		<path fill="#3D454D" d="M226.827,155.358H73.246c-0.559,0-1.012-0.452-1.012-1.011v-42.941c0-0.558,0.453-1.011,1.012-1.011
			h153.581c0.558,0,1.011,0.453,1.011,1.011v42.941C227.838,154.906,227.385,155.358,226.827,155.358z M74.256,153.338h151.561
			v-40.922H74.256V153.338z"/>
	</g>
	<g>
		<g>
			<g>
				<path fill="#FFFFFF" d="M186.916,200.08c0,0.412-0.48,0.746-1.074,0.746H88.971c-0.594,0-1.074-0.334-1.074-0.746v-61.152
					c0-0.412,0.48-0.747,1.074-0.747h96.871c0.594,0,1.074,0.335,1.074,0.747V200.08z"/>
				<path fill="#3D454D" d="M185.842,201.836H88.971c-1.168,0-2.084-0.771-2.084-1.756v-61.152c0-0.984,0.916-1.757,2.084-1.757
					h96.871c1.169,0,2.085,0.773,2.085,1.757v61.152C187.927,201.064,187.011,201.836,185.842,201.836z M88.907,199.812
					c0.02,0.002,0.04,0.004,0.063,0.004h96.871c0.023,0,0.045-0.002,0.063-0.004v-60.617c-0.019-0.002-0.04-0.003-0.063-0.003
					H88.971c-0.023,0-0.044,0.001-0.063,0.004V199.812z"/>
			</g>
			<g>
				<path fill="#E9557E" d="M108.104,145.715c0,1.391-1.021,2.57-2.41,2.57h-9.352c-1.391,0-2.384-1.18-2.384-2.57v-0.228
					c0-1.39,0.993-2.759,2.384-2.759h9.352c1.39,0,2.41,1.37,2.41,2.759V145.715z"/>
				<path fill="#3D454D" d="M105.694,149.295h-9.352c-1.903,0-3.394-1.572-3.394-3.58v-0.228c0-2.079,1.521-3.77,3.394-3.77h9.352
					c2.046,0,3.421,1.95,3.421,3.77v0.228C109.115,147.724,107.613,149.295,105.694,149.295z M96.343,143.739
					c-0.811,0-1.374,0.922-1.374,1.749v0.228c0,0.756,0.482,1.56,1.374,1.56h9.352c0.784,0,1.399-0.685,1.399-1.56v-0.228
					c0-0.825-0.599-1.749-1.399-1.749H96.343z"/>
			</g>
			<g>
				<rect x="161.15" y="192.744" fill="#67CEA4" width="19.703" height="3.535"/>
				<path fill="#3D454D" d="M180.854,197.289H161.15c-0.558,0-1.01-0.451-1.01-1.01v-3.535c0-0.559,0.452-1.012,1.01-1.012h19.703
					c0.559,0,1.01,0.453,1.01,1.012v3.535C181.863,196.838,181.412,197.289,180.854,197.289z M162.162,195.27h17.682v-1.516h-17.682
					V195.27z"/>
			</g>
			<g>
				<path fill="#3D454D" d="M181.358,170.01H93.959c-0.559,0-1.01-0.453-1.01-1.012c0-0.558,0.451-1.01,1.01-1.01h87.399
					c0.558,0,1.011,0.452,1.011,1.01C182.369,169.557,181.916,170.01,181.358,170.01z"/>
			</g>
			<g>
				<path fill="#3D454D" d="M181.358,174.557H93.959c-0.559,0-1.01-0.453-1.01-1.012c0-0.558,0.451-1.01,1.01-1.01h87.399
					c0.558,0,1.011,0.452,1.011,1.01C182.369,174.104,181.916,174.557,181.358,174.557z"/>
			</g>
			<g>
				<path fill="#3D454D" d="M181.358,179.104H93.959c-0.559,0-1.01-0.453-1.01-1.012c0-0.558,0.451-1.01,1.01-1.01h87.399
					c0.558,0,1.011,0.452,1.011,1.01C182.369,178.65,181.916,179.104,181.358,179.104z"/>
			</g>
			<g>
				<path fill="#3D454D" d="M181.358,184.154H93.959c-0.559,0-1.01-0.451-1.01-1.01s0.451-1.011,1.01-1.011h87.399
					c0.558,0,1.011,0.452,1.011,1.011S181.916,184.154,181.358,184.154z"/>
			</g>
			<g>
				<path fill="#3D454D" d="M139.428,188.701H93.959c-0.559,0-1.01-0.451-1.01-1.01s0.451-1.011,1.01-1.011h45.469
					c0.558,0,1.01,0.452,1.01,1.011S139.985,188.701,139.428,188.701z"/>
			</g>
			<g>
				<rect x="93.959" y="152.327" fill="#8CA0B4" width="73.254" height="4.042"/>
				<path fill="#3D454D" d="M167.213,157.379H93.959c-0.559,0-1.01-0.452-1.01-1.01v-4.042c0-0.558,0.451-1.011,1.01-1.011h73.254
					c0.559,0,1.01,0.453,1.01,1.011v4.042C168.223,156.927,167.771,157.379,167.213,157.379z M94.969,155.358h71.234v-2.021H94.969
					V155.358z"/>
			</g>
			<g>
				<rect x="93.959" y="160.916" fill="#8CA0B4" width="45.974" height="3.535"/>
				<path fill="#3D454D" d="M139.933,165.463H93.959c-0.559,0-1.01-0.453-1.01-1.012v-3.535c0-0.559,0.451-1.012,1.01-1.012h45.974
					c0.558,0,1.01,0.453,1.01,1.012v3.535C140.942,165.01,140.49,165.463,139.933,165.463z M94.969,163.441h43.953v-1.516H94.969
					V163.441z"/>
			</g>
		</g>
	</g>
	<g>
		<path fill="#3D454D" d="M217.229,163.947h-24.755c-0.56,0-1.011-0.453-1.011-1.012c0-0.557,0.451-1.01,1.011-1.01h24.755
			c0.557,0,1.01,0.453,1.01,1.01C218.238,163.494,217.785,163.947,217.229,163.947z"/>
	</g>
	<g>
		<path fill="#3D454D" d="M217.229,168.998h-24.755c-0.56,0-1.011-0.451-1.011-1.01c0-0.558,0.451-1.011,1.011-1.011h24.755
			c0.557,0,1.01,0.453,1.01,1.011C218.238,168.547,217.785,168.998,217.229,168.998z"/>
	</g>
	<g>
		<path fill="#3D454D" d="M122.25,125.046H87.896c-0.559,0-1.01-0.452-1.01-1.01c0-0.558,0.451-1.01,1.01-1.01h34.354
			c0.559,0,1.012,0.452,1.012,1.01C123.262,124.594,122.809,125.046,122.25,125.046z"/>
	</g>
	<g>
		<path fill="#3D454D" d="M150.542,130.098H87.896c-0.559,0-1.01-0.452-1.01-1.01c0-0.558,0.451-1.011,1.01-1.011h62.646
			c0.558,0,1.01,0.453,1.01,1.011C151.552,129.646,151.1,130.098,150.542,130.098z"/>
	</g>
	<g>
		<path fill="#3D454D" d="M217.229,174.051h-24.755c-0.56,0-1.011-0.453-1.011-1.011s0.451-1.011,1.011-1.011h24.755
			c0.557,0,1.01,0.453,1.01,1.011S217.785,174.051,217.229,174.051z"/>
	</g>
	<g>
		<path fill="#3D454D" d="M217.229,179.104h-24.755c-0.56,0-1.011-0.453-1.011-1.012c0-0.558,0.451-1.01,1.011-1.01h24.755
			c0.557,0,1.01,0.452,1.01,1.01C218.238,178.65,217.785,179.104,217.229,179.104z"/>
	</g>
</g>
</svg>
